<svg xmlns="http://www.w3.org/2000/svg" viewBox="0 0 48 48">
<defs>
  <style>
    path, polygon, polyline, rect, circle, ellipse, line {vector-effect: non-scaling-stroke}
  </style>
</defs>
  <g id="Layer_2" data-name="Layer 2">
    <g id="Layer_1-2" data-name="Layer 1">
      <g>
        <circle cx="24" cy="24" r="24" fill="#c67f92"/>
        <path d="M26.61141,24.59982l-.0131.01094a2.52286,2.52286,0,0,1-.805.40249,2.8227,2.8227,0,0,1-.27708.0656,3.2151,3.2151,0,0,1,.30552.32812,3.01895,3.01895,0,0,1,.48486.85162c.0146.04232.03064.08678.04887.13346.14219.38207.33687.90413.0204,1.16007a.4494.4494,0,0,1-.29238.10134,1.73564,1.73564,0,0,1-.82465-.36092c-.0474-.03138-.09114-.05982-.1298-.08385a3.01866,3.01866,0,0,1-.72987-.65771,3.08068,3.08068,0,0,1-.39958-.64891,3.04211,3.04211,0,0,1-.3981.64819,3.01057,3.01057,0,0,1-.72768.65625l-.09917.06271c-.377.23987-.84654.53737-1.15351.28072-.24352-.20418-.15311-.64458.07145-1.28841a3.00642,3.00642,0,0,1,.48489-.85385,3.2059,3.2059,0,0,1,.30552-.32807c-.09333-.01678-.18667-.03868-.28147-.06565a2.53505,2.53505,0,0,1-.80568-.4032l-.0423-.03284c-.315-.24423-.74664-.57894-.66571-.9457.08531-.39007.6307-.43092,1.02956-.46007l.10281-.008a2.5062,2.5062,0,0,1,.8983.09915,2.56576,2.56576,0,0,1,.43237.1721,3.08808,3.08808,0,0,1-.06342-.62052,3.01087,3.01087,0,0,1,.1553-.96683l.01677-.0474c.19395-.54979.38353-1.00475.74007-1.00475.32156,0,.52134.385.75614,1.04921a2.98226,2.98226,0,0,1,.15676.969,3.04309,3.04309,0,0,1-.0627.61762,2.65652,2.65652,0,0,1,.42509-.16845,2.517,2.517,0,0,1,.89539-.09991l.00365.00076.07436.00583c.39374.03208.93257.07583,1.05215.43893.10937.33467-.26322.6599-.68905.99092m4.77664-7.03772a20.63,20.63,0,0,0-4.89693,3.5794,22.84224,22.84224,0,0,0,1.74338-6.54479c0-2.76856-8.469-2.82254-8.469,0,0,1.57057,1.09954,4.63587,1.92056,6.70737a21.38578,21.38578,0,0,0-5.07411-3.742c-2.568-1.03461-5.78284,6.80074-3.16448,7.85582a20.95291,20.95291,0,0,0,5.863.70943,20.12138,20.12138,0,0,0-4.62642,3.65519c-1.69088,2.19255,4.98224,7.40736,6.706,5.17183.977-1.26652,1.99857-4.45946,2.60958-6.60386.611,2.1444,1.63256,5.33734,2.61035,6.60386,1.72368,2.23553,8.3968-2.97928,6.70592-5.17183a20.12066,20.12066,0,0,0-4.62641-3.65519,20.96059,20.96059,0,0,0,5.863-.70943c2.61835-1.05508-.59646-8.89043-3.16448-7.85582" fill="none" stroke="#fff" stroke-linecap="round" stroke-linejoin="round"/>
      </g>
    </g>
  </g>
</svg>
