<svg xmlns="http://www.w3.org/2000/svg" viewBox="0 0 48 48">
<defs>
  <style>
    path, polygon, polyline, rect, circle, ellipse, line {vector-effect: non-scaling-stroke}
  </style>
</defs>
  <g id="Layer_2" data-name="Layer 2">
    <g id="Layer_1-2" data-name="Layer 1">
      <g>
        <circle cx="24" cy="24" r="24" fill="#65c6b7"/>
        <path d="M30.89527,20.23661c.70793,2.92423-4.189,2.21555-6.11576,1.83077a.37051.37051,0,0,1-.15477-.65492c1.54344-1.20452,5.58048-4.02631,6.27053-1.17585m-6.83375,3.37494c1.84513.67428,6.39522,2.61826,4.26849,4.74642-2.073,2.0744-4.05065-2.43554-4.74141-4.26849a.36986.36986,0,0,1,.47292-.47793m-3.82493,7.28373c-2.84973-.69077-.02867-4.72709,1.17658-6.27053a.36982.36982,0,0,1,.6542.15478c.38478,1.92607,1.09418,6.82368-1.83078,6.11575M29.85045,14.113,14.113,29.85046A11.12847,11.12847,0,0,0,29.85045,14.113M14.113,29.85046,12.5,31.55377A13.473,13.473,0,0,0,31.55378,12.5m0,0-1.70333,1.613" fill="none" stroke="#fff" stroke-linecap="round" stroke-linejoin="round"/>
      </g>
    </g>
  </g>
</svg>
