<svg xmlns="http://www.w3.org/2000/svg" viewBox="0 0 48 48">
<defs>
  <style>
    path, polygon, polyline, rect, circle, ellipse, line {vector-effect: non-scaling-stroke}
  </style>
</defs>
  <g id="Layer_2" data-name="Layer 2">
    <g id="Layer_1-2" data-name="Layer 1">
      <g>
        <circle cx="24" cy="24" r="24" fill="#ffaa4d"/>
        <path d="M30.56767,16.16659c1.70233,2.45213,1.921,8.23389-2.15844,11.04034,3.89107-7.41266-.84718-15.12913-7.99646-14.68894A4.102,4.102,0,0,1,21.978,15.77474c0,2.735-1.98523,3.37006-3.03232,4.66107a8.02473,8.02473,0,0,0-1.47358,7.1334,8.196,8.196,0,0,1-2.92769-6.39084,10.17387,10.17387,0,0,0,4.00219,13.83092A7.48008,7.48008,0,0,0,19.4898,35.5c-1.49668-3.8687,1.991-7.21134,1.991-7.21134s.63,2.05091,1.8878,2.38862c-.46113-2.9522,1.07524-5.3964,2.75378-5.859-.06206,1.929-.10392,3.269,2.19233,6.48321a4.51167,4.51167,0,0,1,.68266,3.56416c5.45919-3.12325,8.81987-12.83578,1.5703-18.69909" fill="none" stroke="#fff" stroke-linecap="round" stroke-linejoin="round"/>
      </g>
    </g>
  </g>
</svg>
